<svg xmlns="http://www.w3.org/2000/svg" viewBox="0 0 1900 990" font-family="Kalam, 'Comic Sans MS', cursive">
<rect x="0" y="0" width="1900" height="990" fill="#ffffff" />
<defs>
  <marker id="arrowhead" markerWidth="12" markerHeight="12" refX="8" refY="5" orient="auto">
    <path d="M0,0 L10,5 L0,10 Z" fill="#177ABF" />
  </marker>
</defs>
<rect x="84" y="-4" width="340" height="150" rx="16" fill="#EEF0F2" stroke="#177ABF" stroke-width="2.5" />
<rect x="77" y="3" width="340" height="150" rx="16" fill="#EEF0F2" stroke="#177ABF" stroke-width="2.5" />
<rect x="70" y="10" width="340" height="150" rx="16" fill="#EEF0F2" stroke="#177ABF" stroke-width="3" />
<text x="240.0" y="68.5" font-size="27" font-weight="700" fill="#0B2540" text-anchor="middle" dominant-baseline="middle" style="">Other Research Indexes,</text>
<text x="240.0" y="101.5" font-size="27" font-weight="700" fill="#0B2540" text-anchor="middle" dominant-baseline="middle" style="">Catalogues &amp; Graphs</text>
<path d="M 58,205 H 1880 M 30,233 V 787 Q 30,815 58,815 H 1880" fill="none" stroke="#9AA2AC" stroke-width="3" stroke-dasharray="14 12" />
<circle cx="670" cy="245" r="22" fill="#ffffff" stroke="#177ABF" stroke-width="3" /><text x="670" y="246" font-size="24" font-weight="700" fill="#177ABF" text-anchor="middle" dominant-baseline="middle">1</text>
<text x="710" y="240" font-size="40" font-weight="700" fill="#0B2540">DURF &#8211; Dutch Repository Federation</text>
<text x="710" y="285" font-size="27" fill="#0B2540">(Information Ecosystem Governance)</text>
<rect x="84" y="231" width="340" height="150" rx="16" fill="#EEF0F2" stroke="#177ABF" stroke-width="2.5" />
<rect x="77" y="238" width="340" height="150" rx="16" fill="#EEF0F2" stroke="#177ABF" stroke-width="2.5" />
<rect x="70" y="245" width="340" height="150" rx="16" fill="#EEF0F2" stroke="#177ABF" stroke-width="3" />
<text x="240.0" y="303.5" font-size="27" font-weight="700" fill="#0B2540" text-anchor="middle" dominant-baseline="middle" style="">Research</text>
<text x="240.0" y="336.5" font-size="27" font-weight="700" fill="#0B2540" text-anchor="middle" dominant-baseline="middle" style="">Information Systems</text>
<rect x="84" y="401" width="340" height="190" rx="16" fill="#EEF0F2" stroke="#177ABF" stroke-width="2.5" />
<rect x="77" y="408" width="340" height="190" rx="16" fill="#EEF0F2" stroke="#177ABF" stroke-width="2.5" />
<rect x="70" y="415" width="340" height="190" rx="16" fill="#EEF0F2" stroke="#177ABF" stroke-width="3" />
<text x="240.0" y="481.5" font-size="27" font-weight="700" fill="#0B2540" text-anchor="middle" dominant-baseline="middle" style="">Institutional</text>
<text x="240.0" y="514.5" font-size="27" font-weight="700" fill="#0B2540" text-anchor="middle" dominant-baseline="middle" style="">Repositories</text>
<text x="240.0" y="552.0" font-size="19" font-weight="400" fill="#3B5670" text-anchor="middle" dominant-baseline="middle" style="">(Literature, Data, Software)</text>
<rect x="45" y="225" width="403" height="400" rx="26" fill="none" stroke="#177ABF" stroke-width="3" stroke-dasharray="10 9" />
<path d="M 208.0,223.0 L 208.0,194.0 L 215.0,194.0 L 200.0,164.0 L 185.0,194.0 L 192.0,194.0 L 192.0,223.0 Z" fill="#EEF0F2" stroke="#177ABF" stroke-width="2.5" stroke-linejoin="round" />
<circle cx="270.0" cy="191.5" r="22" fill="#ffffff" stroke="#177ABF" stroke-width="3" /><text x="270.0" y="192.5" font-size="24" font-weight="700" fill="#177ABF" text-anchor="middle" dominant-baseline="middle">5</text>
<rect x="84" y="816" width="340" height="150" rx="16" fill="#EEF0F2" stroke="#177ABF" stroke-width="2.5" />
<rect x="77" y="823" width="340" height="150" rx="16" fill="#EEF0F2" stroke="#177ABF" stroke-width="2.5" />
<rect x="70" y="830" width="340" height="150" rx="16" fill="#EEF0F2" stroke="#177ABF" stroke-width="3" />
<text x="240.0" y="893.0" font-size="27" font-weight="700" fill="#0B2540" text-anchor="middle" dominant-baseline="middle" style="">Publishing platforms</text>
<text x="240.0" y="939.0" font-size="19" font-weight="400" fill="#3B5670" text-anchor="middle" dominant-baseline="middle" style="">(full texts + CC0 metadata)</text>
<path d="M 208.0,826.0 L 208.0,657.0 L 215.0,657.0 L 200.0,627.0 L 185.0,657.0 L 192.0,657.0 L 192.0,826.0 Z" fill="#EEF0F2" stroke="#177ABF" stroke-width="2.5" stroke-linejoin="round" />
<circle cx="270.0" cy="728.5" r="22" fill="#ffffff" stroke="#177ABF" stroke-width="3" /><text x="270.0" y="729.5" font-size="24" font-weight="700" fill="#177ABF" text-anchor="middle" dominant-baseline="middle">3</text>
<rect x="600" y="300" width="300" height="160" rx="16" fill="#EEF0F2" stroke="#177ABF" stroke-width="3" />
<text x="750.0" y="366.0" font-size="27" font-weight="700" fill="#0B2540" text-anchor="middle" dominant-baseline="middle" style="">Metadata harvester</text>
<text x="750.0" y="400.0" font-size="27" font-weight="700" fill="#0B2540" text-anchor="middle" dominant-baseline="middle" style="">&amp; validator</text>
<text x="750.0" y="436.0" font-size="20" font-weight="400" fill="#3B5670" text-anchor="middle" dominant-baseline="middle" style="">[OpenAIRE PROVIDE]</text>
<path d="M 447.6,462.0 L 565.0,368.2 L 570.0,374.5 L 586.0,340.0 L 548.8,347.9 L 553.8,354.2 L 436.4,448.0 Z" fill="#EEF0F2" stroke="#177ABF" stroke-width="2.5" stroke-linejoin="round" />
<rect x="1020" y="300" width="300" height="160" rx="16" fill="#EEF0F2" stroke="#177ABF" stroke-width="3" />
<text x="1170.0" y="380.0" font-size="27" font-weight="700" fill="#0B2540" text-anchor="middle" dominant-baseline="middle" style="">[OpenAIRE GRAPH]</text>
<path d="M 914.0,389.0 L 972.0,389.0 L 972.0,397.0 L 1006.0,380.0 L 972.0,363.0 L 972.0,371.0 L 914.0,371.0 Z" fill="#EEF0F2" stroke="#177ABF" stroke-width="2.5" stroke-linejoin="round" />
<path d="M 640,460 C 640,550 578,565 442,565" fill="none" stroke="#177ABF" stroke-width="4" marker-end="url(#arrowhead)" />
<circle cx="660" cy="520" r="22" fill="#ffffff" stroke="#177ABF" stroke-width="3" /><text x="660" y="521" font-size="24" font-weight="700" fill="#177ABF" text-anchor="middle" dominant-baseline="middle">2</text>
<rect x="1020" y="560" width="300" height="160" rx="16" fill="#EEF0F2" stroke="#177ABF" stroke-width="3" />
<text x="1170.0" y="626.0" font-size="27" font-weight="700" fill="#0B2540" text-anchor="middle" dominant-baseline="middle" style="">Enriched Metadata</text>
<text x="1170.0" y="662.0" font-size="20" font-weight="400" fill="#3B5670" text-anchor="middle" dominant-baseline="middle" style="">[OpenAIRE BROKER]</text>
<path d="M 1161.0,464.0 L 1161.0,524.0 L 1154.0,524.0 L 1170.0,556.0 L 1186.0,524.0 L 1179.0,524.0 L 1179.0,464.0 Z" fill="#EEF0F2" stroke="#177ABF" stroke-width="2.5" stroke-linejoin="round" />
<rect x="1440" y="245" width="340" height="160" rx="16" fill="#EEF0F2" stroke="#177ABF" stroke-width="3" />
<text x="1610.0" y="311.0" font-size="26" font-weight="700" fill="#0B2540" text-anchor="middle" dominant-baseline="middle" style="">Netherlands Research</text>
<text x="1610.0" y="345.0" font-size="26" font-weight="700" fill="#0B2540" text-anchor="middle" dominant-baseline="middle" style="">Portal</text>
<text x="1610.0" y="381.0" font-size="19" font-weight="400" fill="#3B5670" text-anchor="middle" dominant-baseline="middle" style="">[OpenAIRE CONNECT]</text>
<rect x="1440" y="450" width="340" height="160" rx="16" fill="#EEF0F2" stroke="#177ABF" stroke-width="3" />
<text x="1610.0" y="516.0" font-size="27" font-weight="700" fill="#0B2540" text-anchor="middle" dominant-baseline="middle" style="">Preservation</text>
<text x="1610.0" y="552.0" font-size="20" font-weight="400" fill="#3B5670" text-anchor="middle" dominant-baseline="middle" style="">[KB eDepot]</text>
<rect x="1440" y="660" width="340" height="140" rx="16" fill="#EEF0F2" stroke="#177ABF" stroke-width="3" />
<text x="1610.0" y="730.0" font-size="27" font-weight="700" fill="#0B2540" text-anchor="middle" dominant-baseline="middle" style="">[KB URN resolver]</text>
<path d="M 1601.0,614.0 L 1601.0,624.0 L 1594.0,624.0 L 1610.0,656.0 L 1626.0,624.0 L 1619.0,624.0 L 1619.0,614.0 Z" fill="#EEF0F2" stroke="#177ABF" stroke-width="2.5" stroke-linejoin="round" />
<path d="M 1332.3,344.2 L 1387.3,369.2 L 1384.0,376.4 L 1422.0,375.0 L 1398.1,345.5 L 1394.8,352.8 L 1339.7,327.8 Z" fill="#EEF0F2" stroke="#177ABF" stroke-width="2.5" stroke-linejoin="round" />
<circle cx="1390" cy="294" r="22" fill="#ffffff" stroke="#177ABF" stroke-width="3" /><text x="1390" y="295" font-size="24" font-weight="700" fill="#177ABF" text-anchor="middle" dominant-baseline="middle">6</text>
<path d="M 1331.5,437.8 L 1388.1,470.7 L 1384.1,477.6 L 1422.0,480.0 L 1401.2,448.2 L 1397.1,455.1 L 1340.5,422.2 Z" fill="#EEF0F2" stroke="#177ABF" stroke-width="2.5" stroke-linejoin="round" />
<circle cx="1390" cy="500" r="22" fill="#ffffff" stroke="#177ABF" stroke-width="3" /><text x="1390" y="501" font-size="24" font-weight="700" fill="#177ABF" text-anchor="middle" dominant-baseline="middle">4</text>
<circle cx="1450" cy="870" r="20" fill="#ffffff" stroke="#177ABF" stroke-width="3" /><text x="1450" y="871" font-size="21" font-weight="700" fill="#177ABF" text-anchor="middle" dominant-baseline="middle">#</text>
<text x="1484" y="871" font-size="24" fill="#177ABF" dominant-baseline="middle">= Theme based intervention</text>
</svg>